<svg xmlns="http://www.w3.org/2000/svg" xmlns:xlink="http://www.w3.org/1999/xlink" viewBox="0 0 4228.79 2613.5"><defs><style>.cls-1{mask:url(#mask);filter:url(#luminosity-noclip-13);}.cls-10,.cls-12,.cls-14,.cls-16,.cls-18,.cls-2,.cls-20,.cls-22,.cls-24,.cls-4,.cls-6,.cls-8{mix-blend-mode:multiply;}.cls-2{fill:url(#linear-gradient);}.cls-3{mask:url(#mask-2);filter:url(#luminosity-noclip-18);}.cls-4{fill:url(#linear-gradient-2);}.cls-5{mask:url(#mask-3);filter:url(#luminosity-noclip-19);}.cls-6{fill:url(#linear-gradient-3);}.cls-7{mask:url(#mask-4);filter:url(#luminosity-noclip-20);}.cls-8{fill:url(#linear-gradient-4);}.cls-9{mask:url(#mask-5);filter:url(#luminosity-noclip-21);}.cls-10{fill:url(#linear-gradient-5);}.cls-11{mask:url(#mask-6);filter:url(#luminosity-noclip-22);}.cls-12{fill:url(#linear-gradient-6);}.cls-13{mask:url(#mask-7);filter:url(#luminosity-noclip-14);}.cls-14{fill:url(#linear-gradient-7);}.cls-15{mask:url(#mask-8);filter:url(#luminosity-noclip-23);}.cls-16{fill:url(#linear-gradient-8);}.cls-17{mask:url(#mask-9);filter:url(#luminosity-noclip-24);}.cls-18{fill:url(#linear-gradient-9);}.cls-19{mask:url(#mask-10);filter:url(#luminosity-noclip-15);}.cls-20{fill:url(#linear-gradient-10);}.cls-21{mask:url(#mask-11);filter:url(#luminosity-noclip-16);}.cls-22{fill:url(#linear-gradient-11);}.cls-23{mask:url(#mask-12);filter:url(#luminosity-noclip-17);}.cls-24{fill:url(#linear-gradient-12);}.cls-25{fill:#f2f2f2;}.cls-26{fill:url(#linear-gradient-13);}.cls-27{fill:#f5f5f5;}.cls-28{mask:url(#mask-13);}.cls-29{fill:url(#linear-gradient-14);}.cls-30{mask:url(#mask-14);}.cls-31{fill:url(#linear-gradient-15);}.cls-32{mask:url(#mask-15);}.cls-33{fill:url(#linear-gradient-16);}.cls-34{mask:url(#mask-16);}.cls-35{fill:url(#linear-gradient-17);}.cls-36{mask:url(#mask-17);}.cls-37{fill:url(#linear-gradient-18);}.cls-38{mask:url(#mask-18);}.cls-39{fill:url(#linear-gradient-19);}.cls-40{mask:url(#mask-19);}.cls-41{fill:url(#linear-gradient-20);}.cls-42{mask:url(#mask-20);}.cls-43{fill:url(#linear-gradient-21);}.cls-44{mask:url(#mask-21);}.cls-45{fill:url(#linear-gradient-22);}.cls-46{fill:#fff;}.cls-47{fill:url(#linear-gradient-23);}.cls-48{fill:url(#linear-gradient-24);}.cls-49{fill:url(#linear-gradient-25);}.cls-50{fill:url(#linear-gradient-26);}.cls-51{fill:url(#linear-gradient-27);}.cls-52{fill:url(#linear-gradient-28);}.cls-53{fill:url(#linear-gradient-29);}.cls-54{fill:url(#linear-gradient-30);}.cls-55{fill:url(#linear-gradient-31);}.cls-56{fill:url(#linear-gradient-32);}.cls-57{fill:url(#linear-gradient-33);}.cls-58{fill:url(#linear-gradient-34);}.cls-59{fill:url(#linear-gradient-35);}.cls-60{fill:url(#linear-gradient-36);}.cls-61{fill:url(#linear-gradient-37);}.cls-62{fill:url(#linear-gradient-38);}.cls-63{fill:url(#linear-gradient-39);}.cls-64{fill:url(#linear-gradient-40);}.cls-65{fill:url(#linear-gradient-41);}.cls-66{mask:url(#mask-22);}.cls-67{fill:url(#linear-gradient-42);}.cls-68{fill:#fdfdfd;}.cls-69{fill:#e7e7e7;}.cls-70{fill:#ebf3f7;}.cls-71{fill:url(#linear-gradient-43);}.cls-72{fill:url(#linear-gradient-44);}.cls-73{fill:url(#linear-gradient-45);}.cls-74{fill:url(#linear-gradient-46);}.cls-75{fill:url(#linear-gradient-47);}.cls-76{fill:url(#linear-gradient-48);}.cls-77{fill:url(#linear-gradient-49);}.cls-78{fill:url(#linear-gradient-50);}.cls-79{fill:url(#linear-gradient-51);}.cls-80{fill:url(#linear-gradient-52);}.cls-81{fill:url(#linear-gradient-53);}.cls-82{fill:url(#linear-gradient-54);}.cls-83{fill:url(#linear-gradient-55);}.cls-84{fill:url(#linear-gradient-56);}.cls-85{fill:url(#linear-gradient-57);}.cls-86{fill:url(#linear-gradient-58);}.cls-87{fill:url(#linear-gradient-59);}.cls-88{fill:#ababab;}.cls-89{fill:#f3f3f3;}.cls-90{fill:url(#linear-gradient-60);}.cls-91{fill:url(#linear-gradient-61);}.cls-92{fill:url(#linear-gradient-62);}.cls-93{fill:url(#linear-gradient-63);}.cls-94{fill:#dbdbdb;}.cls-95{fill:url(#linear-gradient-64);}.cls-96{fill:url(#linear-gradient-65);}.cls-97{fill:url(#linear-gradient-66);}.cls-98{fill:url(#linear-gradient-67);}.cls-99{fill:url(#linear-gradient-68);}.cls-100{fill:url(#linear-gradient-69);}.cls-101{fill:url(#linear-gradient-70);}.cls-102{fill:url(#linear-gradient-71);}.cls-103{fill:url(#linear-gradient-72);}.cls-104{fill:url(#linear-gradient-73);}.cls-105{fill:#55534f;}.cls-106{fill:url(#linear-gradient-74);}.cls-107{fill:#5f8cc9;}.cls-108{fill:#c98e72;}.cls-109{fill:#de9d7d;}.cls-110{fill:#464240;}.cls-111{fill:#eb4747;}.cls-112{fill:#cc4a4a;}.cls-113{fill:#eea886;}.cls-114{fill:#a77860;}.cls-115{fill:#3d4675;}.cls-116{fill:url(#linear-gradient-75);}.cls-117{fill:#706865;}.cls-118{fill:#544e4c;}.cls-119{fill:url(#linear-gradient-76);}.cls-120{mask:url(#mask-23);}.cls-121{fill:url(#linear-gradient-77);}.cls-122{fill:#484e7d;}.cls-123{fill:#5b639e;}.cls-124{fill:#292c47;}.cls-125{fill:#323657;}.cls-126{fill:#d88a51;}.cls-127{fill:#d13f3f;}.cls-128{fill:url(#linear-gradient-78);}.cls-129{fill:url(#linear-gradient-79);}.cls-130{fill:url(#linear-gradient-80);}.cls-131{fill:url(#linear-gradient-81);}.cls-132{fill:url(#linear-gradient-82);}.cls-133{fill:url(#linear-gradient-83);}.cls-134{fill:url(#linear-gradient-84);}.cls-135{fill:url(#linear-gradient-85);}.cls-136{mask:url(#mask-24);}.cls-137{fill:url(#linear-gradient-86);}.cls-138{fill:#0e2d3d;}.cls-139{fill:#78c2ff;}.cls-140{fill:#163342;}.cls-141{fill:#172442;}.cls-142{fill:#293f73;}.cls-143{fill:#4e83c9;}.cls-144{fill:#172340;}.cls-145{fill:#616161;}.cls-146{fill:#e0cec7;}.cls-147{fill:#eea987;}.cls-148{filter:url(#luminosity-noclip-12);}.cls-149{filter:url(#luminosity-noclip-11);}.cls-150{filter:url(#luminosity-noclip-10);}.cls-151{filter:url(#luminosity-noclip-9);}.cls-152{filter:url(#luminosity-noclip-8);}.cls-153{filter:url(#luminosity-noclip-7);}.cls-154{filter:url(#luminosity-noclip-6);}.cls-155{filter:url(#luminosity-noclip-5);}.cls-156{filter:url(#luminosity-noclip-4);}.cls-157{filter:url(#luminosity-noclip-3);}.cls-158{filter:url(#luminosity-noclip-2);}.cls-159{filter:url(#luminosity-noclip);}</style><filter id="luminosity-noclip" x="1625.95" y="-9885.5" width="918.65" height="32766" filterUnits="userSpaceOnUse" color-interpolation-filters="sRGB"><feFlood flood-color="#fff" result="bg"/><feBlend in="SourceGraphic" in2="bg"/></filter><mask id="mask" x="1625.95" y="-9885.5" width="918.65" height="32766" maskUnits="userSpaceOnUse"><g class="cls-159"/></mask><linearGradient id="linear-gradient" x1="2085.27" y1="1689.23" x2="2085.27" y2="2033.62" gradientUnits="userSpaceOnUse"><stop offset="0" stop-color="#fff"/><stop offset="1"/></linearGradient><filter id="luminosity-noclip-2" x="2292.39" y="-9885.5" width="25.27" height="32766" filterUnits="userSpaceOnUse" color-interpolation-filters="sRGB"><feFlood flood-color="#fff" result="bg"/><feBlend in="SourceGraphic" in2="bg"/></filter><mask id="mask-2" x="2292.39" y="-9885.5" width="25.27" height="32766" maskUnits="userSpaceOnUse"><g class="cls-158"/></mask><linearGradient id="linear-gradient-2" x1="2305.03" y1="-10105.33" x2="2305.03" y2="-9761.15" gradientTransform="matrix(1, 0, 0, -1, 0, -8207.67)" gradientUnits="userSpaceOnUse"><stop offset="0"/><stop offset="1" stop-color="#fff"/></linearGradient><filter id="luminosity-noclip-3" x="2317.66" y="-9885.5" width="226.94" height="32766" filterUnits="userSpaceOnUse" color-interpolation-filters="sRGB"><feFlood flood-color="#fff" result="bg"/><feBlend in="SourceGraphic" in2="bg"/></filter><mask id="mask-3" x="2317.66" y="-9885.5" width="226.94" height="32766" maskUnits="userSpaceOnUse"><g class="cls-157"/></mask><linearGradient id="linear-gradient-3" x1="2431.13" y1="-10105.33" x2="2431.13" y2="-9761.15" xlink:href="#linear-gradient-2"/><filter id="luminosity-noclip-4" x="2320.88" y="-9885.5" width="46.33" height="32766" filterUnits="userSpaceOnUse" color-interpolation-filters="sRGB"><feFlood flood-color="#fff" result="bg"/><feBlend in="SourceGraphic" in2="bg"/></filter><mask id="mask-4" x="2320.88" y="-9885.5" width="46.33" height="32766" maskUnits="userSpaceOnUse"><g class="cls-156"/></mask><linearGradient id="linear-gradient-4" x1="2344.05" y1="-10105.33" x2="2344.05" y2="-9761.14" xlink:href="#linear-gradient-2"/><filter id="luminosity-noclip-5" x="1657.66" y="-9885.5" width="27.75" height="32766" filterUnits="userSpaceOnUse" color-interpolation-filters="sRGB"><feFlood flood-color="#fff" result="bg"/><feBlend in="SourceGraphic" in2="bg"/></filter><mask id="mask-5" x="1657.66" y="-9885.5" width="27.75" height="32766" maskUnits="userSpaceOnUse"><g class="cls-155"/></mask><linearGradient id="linear-gradient-5" x1="1671.54" y1="-10105.33" x2="1671.54" y2="-9761.15" xlink:href="#linear-gradient-2"/><filter id="luminosity-noclip-6" x="1488.4" y="-9885.5" width="930.47" height="32766" filterUnits="userSpaceOnUse" color-interpolation-filters="sRGB"><feFlood flood-color="#fff" result="bg"/><feBlend in="SourceGraphic" in2="bg"/></filter><mask id="mask-6" x="1488.4" y="-9885.5" width="930.47" height="32766" maskUnits="userSpaceOnUse"><g class="cls-154"/></mask><linearGradient id="linear-gradient-6" x1="1953.64" y1="2335.44" x2="1953.64" y2="1376.08" gradientTransform="matrix(1, 0, 0, 1, 0, 0)" xlink:href="#linear-gradient-2"/><filter id="luminosity-noclip-7" x="1728.02" y="-9885.5" width="26.76" height="32766" filterUnits="userSpaceOnUse" color-interpolation-filters="sRGB"><feFlood flood-color="#fff" result="bg"/><feBlend in="SourceGraphic" in2="bg"/></filter><mask id="mask-7" x="1728.02" y="-9885.5" width="26.76" height="32766" maskUnits="userSpaceOnUse"><g class="cls-153"/></mask><linearGradient id="linear-gradient-7" x1="1741.4" y1="-10105.33" x2="1741.4" y2="-9761.15" xlink:href="#linear-gradient-2"/><filter id="luminosity-noclip-8" x="979.66" y="-9885.5" width="61.67" height="32766" filterUnits="userSpaceOnUse" color-interpolation-filters="sRGB"><feFlood flood-color="#fff" result="bg"/><feBlend in="SourceGraphic" in2="bg"/></filter><mask id="mask-8" x="979.66" y="-9885.5" width="61.67" height="32766" maskUnits="userSpaceOnUse"><g class="cls-152"/></mask><linearGradient id="linear-gradient-8" x1="982.6" y1="2202.41" x2="1018.3" y2="2137.01" gradientUnits="userSpaceOnUse"><stop offset="0" stop-color="#fff"/><stop offset="0.99"/></linearGradient><filter id="luminosity-noclip-9" x="2172.13" y="-9885.5" width="127.87" height="32766" filterUnits="userSpaceOnUse" color-interpolation-filters="sRGB"><feFlood flood-color="#fff" result="bg"/><feBlend in="SourceGraphic" in2="bg"/></filter><mask id="mask-9" x="2172.13" y="-9885.5" width="127.87" height="32766" maskUnits="userSpaceOnUse"><g class="cls-151"/></mask><linearGradient id="linear-gradient-9" x1="2172.13" y1="2417.9" x2="2300" y2="2417.9" xlink:href="#linear-gradient-8"/><filter id="luminosity-noclip-10" x="1754.78" y="-9885.5" width="165.5" height="32766" filterUnits="userSpaceOnUse" color-interpolation-filters="sRGB"><feFlood flood-color="#fff" result="bg"/><feBlend in="SourceGraphic" in2="bg"/></filter><mask id="mask-10" x="1754.78" y="-9885.5" width="165.5" height="32766" maskUnits="userSpaceOnUse"><g class="cls-150"/></mask><linearGradient id="linear-gradient-10" x1="1837.53" y1="-10105.33" x2="1837.53" y2="-9761.15" xlink:href="#linear-gradient-2"/><filter id="luminosity-noclip-11" x="1908.38" y="-9885.5" width="169.07" height="32766" filterUnits="userSpaceOnUse" color-interpolation-filters="sRGB"><feFlood flood-color="#fff" result="bg"/><feBlend in="SourceGraphic" in2="bg"/></filter><mask id="mask-11" x="1908.38" y="-9885.5" width="169.07" height="32766" maskUnits="userSpaceOnUse"><g class="cls-149"/></mask><linearGradient id="linear-gradient-11" x1="1992.92" y1="-10105.33" x2="1992.92" y2="-9761.15" xlink:href="#linear-gradient-2"/><filter id="luminosity-noclip-12" x="2077.46" y="-9885.5" width="142.1" height="32766" filterUnits="userSpaceOnUse" color-interpolation-filters="sRGB"><feFlood flood-color="#fff" result="bg"/><feBlend in="SourceGraphic" in2="bg"/></filter><mask id="mask-12" x="2077.46" y="-9885.5" width="142.1" height="32766" maskUnits="userSpaceOnUse"><g class="cls-148"/></mask><linearGradient id="linear-gradient-12" x1="2148.5" y1="-10105.33" x2="2148.5" y2="-9761.15" xlink:href="#linear-gradient-2"/><linearGradient id="linear-gradient-13" x1="1787.04" y1="2630.42" x2="1787.04" y2="1511.69" gradientUnits="userSpaceOnUse"><stop offset="0" stop-color="#f2f2f2"/><stop offset="1" stop-color="#fcfcfc"/></linearGradient><filter id="luminosity-noclip-13" x="1625.95" y="1760.34" width="918.65" height="397.91" filterUnits="userSpaceOnUse" color-interpolation-filters="sRGB"><feFlood flood-color="#fff" result="bg"/><feBlend in="SourceGraphic" in2="bg"/></filter><mask id="mask-13" x="1625.95" y="1760.34" width="918.65" height="397.91" maskUnits="userSpaceOnUse"><g class="cls-1"><polygon class="cls-2" points="1625.95 1760.35 1625.95 1907.65 1685.41 1907.65 1685.41 2006.17 1754.78 2006.17 1754.78 1923.91 1808.29 1923.91 1808.29 2041.56 1797.39 2041.56 1797.39 2060.69 1920.27 2060.69 1920.27 2040.6 1908.38 2040.6 1908.38 1927.73 1937.12 1927.73 1937.12 1900.95 1989.64 1900.95 1989.64 2107.56 2042.17 2158.25 2060 2141.03 2077.46 2141.03 2077.46 1854.08 2137.3 1854.08 2137.3 1877.04 2182.89 1921.04 2219.55 1921.04 2219.55 1854.08 2257.21 1854.08 2257.21 2026.25 2317.66 2026.25 2317.66 1901.91 2367.21 1901.91 2367.21 1808.17 2432.62 1808.17 2432.62 1911.47 2544.6 1911.47 2544.6 1760.35 1625.95 1760.35"/></g></mask><linearGradient id="linear-gradient-14" x1="2085.27" y1="1689.23" x2="2085.27" y2="2033.62" gradientUnits="userSpaceOnUse"><stop offset="0" stop-color="#fcfcfc"/><stop offset="1" stop-color="#fff"/></linearGradient><filter id="luminosity-noclip-14" x="1728.02" y="1760.34" width="26.76" height="245.82" filterUnits="userSpaceOnUse" color-interpolation-filters="sRGB"><feFlood flood-color="#fff" result="bg"/><feBlend in="SourceGraphic" in2="bg"/></filter><mask id="mask-14" x="1728.02" y="1760.34" width="26.76" height="245.82" maskUnits="userSpaceOnUse"><g class="cls-13"><rect class="cls-14" x="1728.02" y="1760.34" width="26.76" height="245.82"/></g></mask><linearGradient id="linear-gradient-15" x1="1741.4" y1="-10105.33" x2="1741.4" y2="-9761.15" gradientTransform="matrix(1, 0, 0, -1, 0, -8207.67)" gradientUnits="userSpaceOnUse"><stop offset="0" stop-color="#fcfcfc"/><stop offset="1" stop-color="#fcfcfc"/></linearGradient><filter id="luminosity-noclip-15" x="1754.78" y="1760.34" width="165.5" height="300.34" filterUnits="userSpaceOnUse" color-interpolation-filters="sRGB"><feFlood flood-color="#fff" result="bg"/><feBlend in="SourceGraphic" in2="bg"/></filter><mask id="mask-15" x="1754.78" y="1760.34" width="165.5" height="300.34" maskUnits="userSpaceOnUse"><g class="cls-19"><polygon class="cls-20" points="1865.11 2060.69 1865.11 1845.15 1806.31 1845.15 1806.31 1793.5 1754.78 1793.5 1754.78 1760.35 1908.38 1760.35 1908.38 2040.6 1920.27 2040.6 1920.27 2060.69 1865.11 2060.69"/></g></mask><linearGradient id="linear-gradient-16" x1="1837.53" y1="-10105.33" x2="1837.53" y2="-9761.15" xlink:href="#linear-gradient-15"/><filter id="luminosity-noclip-16" x="1908.38" y="1760.34" width="169.07" height="397.91" filterUnits="userSpaceOnUse" color-interpolation-filters="sRGB"><feFlood flood-color="#fff" result="bg"/><feBlend in="SourceGraphic" in2="bg"/></filter><mask id="mask-16" x="1908.38" y="1760.34" width="169.07" height="397.91" maskUnits="userSpaceOnUse"><g class="cls-21"><polygon class="cls-22" points="2042.17 2158.25 2042.17 1818.69 1990.64 1818.69 1990.64 1900.95 1961.9 1900.95 1961.9 1828.26 1908.38 1828.26 1908.38 1760.35 2077.46 1760.35 2077.46 2141.03 2060 2141.03 2042.17 2158.25"/></g></mask><linearGradient id="linear-gradient-17" x1="1992.92" y1="-10105.33" x2="1992.92" y2="-9761.15" xlink:href="#linear-gradient-15"/><filter id="luminosity-noclip-17" x="2077.46" y="1760.34" width="142.1" height="160.69" filterUnits="userSpaceOnUse" color-interpolation-filters="sRGB"><feFlood flood-color="#fff" result="bg"/><feBlend in="SourceGraphic" in2="bg"/></filter><mask id="mask-17" x="2077.46" y="1760.34" width="142.1" height="160.69" maskUnits="userSpaceOnUse"><g class="cls-23"><polygon class="cls-24" points="2182.89 1921.04 2182.89 1830.17 2149.94 1798.37 2124.42 1798.37 2124.42 1781.87 2077.46 1781.87 2077.46 1760.35 2219.55 1760.35 2219.55 1921.04 2182.89 1921.04"/></g></mask><linearGradient id="linear-gradient-18" x1="2148.5" y1="-10105.33" x2="2148.5" y2="-9761.15" xlink:href="#linear-gradient-15"/><filter id="luminosity-noclip-18" x="2292.39" y="1760.34" width="25.27" height="265.91" filterUnits="userSpaceOnUse" color-interpolation-filters="sRGB"><feFlood flood-color="#fff" result="bg"/><feBlend in="SourceGraphic" in2="bg"/></filter><mask id="mask-18" x="2292.39" y="1760.34" width="25.27" height="265.91" maskUnits="userSpaceOnUse"><g class="cls-3"><rect class="cls-4" x="2292.39" y="1760.34" width="25.27" height="265.91"/></g></mask><linearGradient id="linear-gradient-19" x1="2305.03" y1="-10105.33" x2="2305.03" y2="-9761.15" xlink:href="#linear-gradient-15"/><filter id="luminosity-noclip-19" x="2317.66" y="1760.34" width="226.94" height="151.13" filterUnits="userSpaceOnUse" color-interpolation-filters="sRGB"><feFlood flood-color="#fff" result="bg"/><feBlend in="SourceGraphic" in2="bg"/></filter><mask id="mask-19" x="2317.66" y="1760.34" width="226.94" height="151.13" maskUnits="userSpaceOnUse"><g class="cls-5"><polygon class="cls-6" points="2544.6 1911.47 2498.02 1911.47 2498.02 1798.6 2464.33 1798.6 2464.33 1776.29 2317.66 1776.29 2317.66 1760.35 2544.6 1760.35 2544.6 1911.47"/></g></mask><linearGradient id="linear-gradient-20" x1="2431.13" y1="-10105.33" x2="2431.13" y2="-9761.15" xlink:href="#linear-gradient-15"/><filter id="luminosity-noclip-20" x="2320.88" y="1769.19" width="46.33" height="132.72" filterUnits="userSpaceOnUse" color-interpolation-filters="sRGB"><feFlood flood-color="#fff" result="bg"/><feBlend in="SourceGraphic" in2="bg"/></filter><mask id="mask-20" x="2320.88" y="1769.19" width="46.33" height="132.72" maskUnits="userSpaceOnUse"><g class="cls-7"><polygon class="cls-8" points="2367.21 1901.91 2347.89 1901.91 2347.89 1795.26 2320.88 1769.19 2367.21 1769.19 2367.21 1901.91"/></g></mask><linearGradient id="linear-gradient-21" x1="2344.05" y1="-10105.33" x2="2344.05" y2="-9761.14" xlink:href="#linear-gradient-15"/><filter id="luminosity-noclip-21" x="1657.66" y="1760.34" width="27.75" height="147.3" filterUnits="userSpaceOnUse" color-interpolation-filters="sRGB"><feFlood flood-color="#fff" result="bg"/><feBlend in="SourceGraphic" in2="bg"/></filter><mask id="mask-21" x="1657.66" y="1760.34" width="27.75" height="147.3" maskUnits="userSpaceOnUse"><g class="cls-9"><rect class="cls-10" x="1657.66" y="1760.34" width="27.75" height="147.3"/></g></mask><linearGradient id="linear-gradient-22" x1="1671.54" y1="-10105.33" x2="1671.54" y2="-9761.15" xlink:href="#linear-gradient-15"/><linearGradient id="linear-gradient-23" x1="1714.95" y1="1754.96" x2="1820.66" y2="2977.34" gradientUnits="userSpaceOnUse"><stop offset="0" stop-color="#eeeefa"/><stop offset="1" stop-color="#fff"/></linearGradient><linearGradient id="linear-gradient-24" x1="1202.41" y1="1124.39" x2="1202.41" y2="2645.38" gradientUnits="userSpaceOnUse"><stop offset="0" stop-color="#dbdbe6"/><stop offset="1" stop-color="#fff"/></linearGradient><linearGradient id="linear-gradient-25" x1="858.54" y1="1912.19" x2="858.54" y2="1182.33" gradientUnits="userSpaceOnUse"><stop offset="0" stop-color="#fcfcfc"/><stop offset="1" stop-color="#fdfdfd"/></linearGradient><linearGradient id="linear-gradient-26" x1="954.66" y1="1912.19" x2="954.66" y2="1182.33" xlink:href="#linear-gradient-25"/><linearGradient id="linear-gradient-27" x1="1110.06" y1="1912.19" x2="1110.06" y2="1182.33" xlink:href="#linear-gradient-25"/><linearGradient id="linear-gradient-28" x1="1265.64" y1="1912.19" x2="1265.64" y2="1182.33" xlink:href="#linear-gradient-25"/><linearGradient id="linear-gradient-29" x1="1422.16" y1="1912.19" x2="1422.16" y2="1182.33" xlink:href="#linear-gradient-25"/><linearGradient id="linear-gradient-30" x1="1548.27" y1="1912.19" x2="1548.27" y2="1182.33" xlink:href="#linear-gradient-25"/><linearGradient id="linear-gradient-31" x1="1461.18" y1="1912.19" x2="1461.18" y2="1182.33" xlink:href="#linear-gradient-25"/><linearGradient id="linear-gradient-32" x1="788.67" y1="1912.19" x2="788.67" y2="1182.33" xlink:href="#linear-gradient-25"/><linearGradient id="linear-gradient-33" x1="2085.27" y1="1124.39" x2="2085.27" y2="2645.38" xlink:href="#linear-gradient-24"/><linearGradient id="linear-gradient-34" x1="1741.4" y1="1912.19" x2="1741.4" y2="1182.33" xlink:href="#linear-gradient-25"/><linearGradient id="linear-gradient-35" x1="1837.53" y1="1912.19" x2="1837.53" y2="1182.33" xlink:href="#linear-gradient-25"/><linearGradient id="linear-gradient-36" x1="1992.92" y1="1912.19" x2="1992.92" y2="1182.33" xlink:href="#linear-gradient-25"/><linearGradient id="linear-gradient-37" x1="2148.5" y1="1912.19" x2="2148.5" y2="1182.33" xlink:href="#linear-gradient-25"/><linearGradient id="linear-gradient-38" x1="2305.03" y1="1912.19" x2="2305.03" y2="1182.33" xlink:href="#linear-gradient-25"/><linearGradient id="linear-gradient-39" x1="2431.13" y1="1912.19" x2="2431.13" y2="1182.33" xlink:href="#linear-gradient-25"/><linearGradient id="linear-gradient-40" x1="2344.05" y1="1912.19" x2="2344.05" y2="1182.33" xlink:href="#linear-gradient-25"/><linearGradient id="linear-gradient-41" x1="1671.54" y1="1912.19" x2="1671.54" y2="1182.33" xlink:href="#linear-gradient-25"/><filter id="luminosity-noclip-22" x="1488.4" y="1758.01" width="930.47" height="814.65" filterUnits="userSpaceOnUse" color-interpolation-filters="sRGB"><feFlood flood-color="#fff" result="bg"/><feBlend in="SourceGraphic" in2="bg"/></filter><mask id="mask-22" x="1488.4" y="1758.01" width="930.47" height="814.65" maskUnits="userSpaceOnUse"><g class="cls-11"><path class="cls-12" d="M2418.87,2572.66H1984.05c-154.93-101.72-361.55-258.09-451.38-417.8-13.46-23.93-24.28-47.88-32-71.78-62.17-194,117.73-269.42,386.84-300.94q9.9-1.16,20-2.26c135.89-14.62,292.93-18.84,452.3-21.87,0,0-243.91,6.71-452.3,51-6.68,1.45-13.37,2.91-20,4.42-158.93,36.15-291.32,95.33-268.52,191.78,11.45,48.42,47.06,98.86,99.09,149.6C1874.11,2307.12,2177.56,2462.06,2418.87,2572.66Z"/></g></mask><linearGradient id="linear-gradient-42" x1="1953.64" y1="2335.44" x2="1953.64" y2="1376.08" gradientTransform="matrix(1, 0, 0, 1, 0, 0)" xlink:href="#linear-gradient-15"/><linearGradient id="linear-gradient-43" x1="2068.01" y1="799.83" x2="2068.01" y2="1335.26" gradientUnits="userSpaceOnUse"><stop offset="0" stop-color="#dedede"/><stop offset="1" stop-color="#fff"/></linearGradient><linearGradient id="linear-gradient-44" x1="2068.01" y1="799.84" x2="2068.01" y2="1335.23" xlink:href="#linear-gradient-43"/><linearGradient id="linear-gradient-45" x1="2068.01" y1="799.83" x2="2068.01" y2="1335.24" xlink:href="#linear-gradient-43"/><linearGradient id="linear-gradient-46" x1="2068.01" y1="799.83" x2="2068.01" y2="1335.25" xlink:href="#linear-gradient-43"/><linearGradient id="linear-gradient-47" x1="2068.01" y1="799.83" x2="2068.01" y2="1335.24" xlink:href="#linear-gradient-43"/><linearGradient id="linear-gradient-48" x1="2068.01" y1="799.84" x2="2068.01" y2="1335.24" xlink:href="#linear-gradient-43"/><linearGradient id="linear-gradient-49" x1="2068.01" y1="799.83" x2="2068.01" y2="1335.24" xlink:href="#linear-gradient-43"/><linearGradient id="linear-gradient-50" x1="2068.01" y1="799.83" x2="2068.01" y2="1335.24" xlink:href="#linear-gradient-43"/><linearGradient id="linear-gradient-51" x1="603.62" y1="1600.62" x2="603.62" y2="889" gradientUnits="userSpaceOnUse"><stop offset="0" stop-color="#fff"/><stop offset="1" stop-color="#dbdbdb"/></linearGradient><linearGradient id="linear-gradient-52" x1="1002.64" y1="1600.62" x2="1002.64" y2="888.99" xlink:href="#linear-gradient-51"/><linearGradient id="linear-gradient-53" x1="966.29" y1="1600.62" x2="966.29" y2="888.99" xlink:href="#linear-gradient-51"/><linearGradient id="linear-gradient-54" x1="1110.06" y1="2111.43" x2="1110.06" y2="2285.71" xlink:href="#linear-gradient-51"/><linearGradient id="linear-gradient-55" x1="1110.06" y1="1949.74" x2="1110.06" y2="2415.28" gradientUnits="userSpaceOnUse"><stop offset="0" stop-color="#fff"/><stop offset="1" stop-color="#ababab"/></linearGradient><linearGradient id="linear-gradient-56" x1="1430.33" y1="1949.75" x2="1430.33" y2="2415.28" xlink:href="#linear-gradient-55"/><linearGradient id="linear-gradient-57" x1="1047.19" y1="1949.75" x2="1047.19" y2="2415.28" xlink:href="#linear-gradient-55"/><linearGradient id="linear-gradient-58" x1="751.3" y1="1926.92" x2="751.3" y2="2392.46" xlink:href="#linear-gradient-51"/><linearGradient id="linear-gradient-59" x1="1523.03" y1="2129.79" x2="1395.39" y2="2129.79" xlink:href="#linear-gradient-51"/><linearGradient id="linear-gradient-60" x1="1507.26" y1="2093.75" x2="1351.9" y2="2093.75" xlink:href="#linear-gradient-51"/><linearGradient id="linear-gradient-61" x1="1412.64" y1="2050.6" x2="1540.06" y2="2050.6" gradientTransform="translate(2918.82 4101.2) rotate(-180)" xlink:href="#linear-gradient-51"/><linearGradient id="linear-gradient-62" x1="1486.44" y1="2003.07" x2="1407.97" y2="2003.07" xlink:href="#linear-gradient-51"/><linearGradient id="linear-gradient-63" x1="1337.58" y1="1961.32" x2="1456.27" y2="1961.32" xlink:href="#linear-gradient-51"/><linearGradient id="linear-gradient-64" x1="-4033.62" y1="2277.47" x2="-3522.66" y2="2277.47" gradientTransform="matrix(1, 0, 0, -1, 5625.14, 4554.95)" gradientUnits="userSpaceOnUse"><stop offset="0" stop-color="#5c5a56"/><stop offset="1" stop-color="#42413e"/></linearGradient><linearGradient id="linear-gradient-65" x1="-3744.29" y1="2353.95" x2="-3822.48" y2="2034.24" gradientTransform="matrix(1, 0, 0, -1, 5625.14, 4431.11)" gradientUnits="userSpaceOnUse"><stop offset="0" stop-color="#ff9f55"/><stop offset="1" stop-color="#ffd255"/></linearGradient><linearGradient id="linear-gradient-66" x1="-3537.6" y1="2322.98" x2="-3537.6" y2="2517.57" gradientTransform="matrix(0, 1, 1, 0, -821.66, 5965.72)" xlink:href="#linear-gradient-64"/><linearGradient id="linear-gradient-67" x1="-4018.68" y1="2322.98" x2="-4018.68" y2="2517.57" gradientTransform="matrix(0, 1, 1, 0, -340.59, 6446.8)" xlink:href="#linear-gradient-64"/><linearGradient id="linear-gradient-68" x1="1270.82" y1="2338.99" x2="1270.82" y2="2436.51" gradientTransform="translate(-1120.86 3662.5) rotate(-90)" xlink:href="#linear-gradient-64"/><linearGradient id="linear-gradient-69" x1="1554.03" y1="2323.73" x2="642.31" y2="2323.73" gradientTransform="matrix(1, 0, 0, 1, 0, 0)" xlink:href="#linear-gradient-64"/><linearGradient id="linear-gradient-70" x1="366.66" y1="2080.62" x2="1518.75" y2="1832.19" gradientTransform="matrix(1, 0, 0, 1, 0, 0)" xlink:href="#linear-gradient-65"/><linearGradient id="linear-gradient-71" x1="832.86" y1="2187.17" x2="1658.19" y2="2086.62" gradientTransform="matrix(1, 0, 0, 1, 0, 0)" xlink:href="#linear-gradient-65"/><linearGradient id="linear-gradient-72" x1="541.19" y1="2338.99" x2="541.19" y2="2436.51" gradientTransform="translate(-1850.49 2932.87) rotate(-90)" xlink:href="#linear-gradient-64"/><linearGradient id="linear-gradient-73" x1="179.96" y1="2338.99" x2="179.96" y2="2436.51" gradientTransform="translate(-2211.72 2571.64) rotate(-90)" xlink:href="#linear-gradient-64"/><linearGradient id="linear-gradient-74" x1="325.26" y1="2160.86" x2="325.26" y2="1751.82" gradientTransform="matrix(1, 0, 0, 1, 0, 0)" xlink:href="#linear-gradient-65"/><linearGradient id="linear-gradient-75" x1="952.19" y1="1638.38" x2="1124.19" y2="1638.38" gradientTransform="matrix(1, 0, 0, 1, 0, 0)" xlink:href="#linear-gradient-65"/><linearGradient id="linear-gradient-76" x1="1033.71" y1="2080.47" x2="1015.21" y2="2219.23" gradientUnits="userSpaceOnUse"><stop offset="0" stop-color="#6b84de"/><stop offset="1" stop-color="#284094"/></linearGradient><filter id="luminosity-noclip-23" x="979.66" y="2109.14" width="61.67" height="84.33" filterUnits="userSpaceOnUse" color-interpolation-filters="sRGB"><feFlood flood-color="#fff" result="bg"/><feBlend in="SourceGraphic" in2="bg"/></filter><mask id="mask-23" x="979.66" y="2109.14" width="61.67" height="84.33" maskUnits="userSpaceOnUse"><g class="cls-15"><path class="cls-16" d="M1041.33,2193.47H991.42l-11.76-84.33h27s-9.71,76.11,34.64,84.33Z"/></g></mask><linearGradient id="linear-gradient-77" x1="982.6" y1="2202.41" x2="1018.3" y2="2137.01" gradientUnits="userSpaceOnUse"><stop offset="0" stop-color="#202a4a"/><stop offset="0.99" stop-color="#426fff"/></linearGradient><linearGradient id="linear-gradient-78" x1="2214.87" y1="2211.72" x2="2441.82" y2="2211.72" gradientUnits="userSpaceOnUse"><stop offset="0" stop-color="#3076a1"/><stop offset="1" stop-color="#639c38"/></linearGradient><linearGradient id="linear-gradient-79" x1="2195.16" y1="2178.64" x2="2491.48" y2="2178.64" xlink:href="#linear-gradient-78"/><linearGradient id="linear-gradient-80" x1="2127.08" y1="2133.8" x2="2318.21" y2="2133.8" xlink:href="#linear-gradient-78"/><linearGradient id="linear-gradient-81" x1="2180.2" y1="2175.14" x2="2238.15" y2="2175.14" xlink:href="#linear-gradient-78"/><linearGradient id="linear-gradient-82" x1="2049.04" y1="2186.62" x2="2236.13" y2="2186.62" xlink:href="#linear-gradient-78"/><linearGradient id="linear-gradient-83" x1="2174.31" y1="2610.51" x2="2331.71" y2="1998.38" xlink:href="#linear-gradient-78"/><linearGradient id="linear-gradient-84" x1="2231.52" y1="2293.2" x2="2300.69" y2="2293.2" xlink:href="#linear-gradient-78"/><linearGradient id="linear-gradient-85" x1="2172.13" y1="2417.9" x2="2300" y2="2417.9" gradientUnits="userSpaceOnUse"><stop offset="0" stop-color="#bad0de"/><stop offset="1" stop-color="#f5f2ff"/></linearGradient><filter id="luminosity-noclip-24" x="2172.13" y="2360.62" width="127.87" height="114.55" filterUnits="userSpaceOnUse" color-interpolation-filters="sRGB"><feFlood flood-color="#fff" result="bg"/><feBlend in="SourceGraphic" in2="bg"/></filter><mask id="mask-24" x="2172.13" y="2360.62" width="127.87" height="114.55" maskUnits="userSpaceOnUse"><g class="cls-17"><path class="cls-18" d="M2300,2360.62s-66.47,12.48-66.47,114.55h-31.2l-30.2-114.55Z"/></g></mask><linearGradient id="linear-gradient-86" x1="2172.13" y1="2417.9" x2="2300" y2="2417.9" gradientUnits="userSpaceOnUse"><stop offset="0" stop-color="#9fa0ad"/><stop offset="0.99" stop-color="#55b5ff"/></linearGradient></defs><title>background1</title><g id="Layer_2" data-name="Layer 2"><g id="_Layer_" data-name="&lt;Layer&gt;"><path class="cls-25" d="M4064.5,2613.5H0V212s1615.18-477,2032.25,0C2350.4,575.86,3209.5,99.5,3385,1165.66c72.14,438.24,189,75.63,540,369.95C4514.5,2030,4064.5,2613.5,4064.5,2613.5Z"/><rect class="cls-26" x="838.91" y="1716.3" width="1896.25" height="856.37"/><polygon class="cls-27" points="1727.52 2095.89 2196.15 2109.44 1773.5 2109.44 1685.41 2095.89 1727.52 2095.89"/><g class="cls-28"><polygon class="cls-29" points="1625.95 1760.35 1625.95 1907.65 1685.41 1907.65 1685.41 2006.17 1754.78 2006.17 1754.78 1923.91 1808.29 1923.91 1808.29 2041.56 1797.39 2041.56 1797.39 2060.69 1920.27 2060.69 1920.27 2040.6 1908.38 2040.6 1908.38 1927.73 1937.12 1927.73 1937.12 1900.95 1989.64 1900.95 1989.64 2107.56 2042.17 2158.25 2060 2141.03 2077.46 2141.03 2077.46 1854.08 2137.3 1854.08 2137.3 1877.04 2182.89 1921.04 2219.55 1921.04 2219.55 1854.08 2257.21 1854.08 2257.21 2026.25 2317.66 2026.25 2317.66 1901.91 2367.21 1901.91 2367.21 1808.17 2432.62 1808.17 2432.62 1911.47 2544.6 1911.47 2544.6 1760.35 1625.95 1760.35"/></g><g class="cls-30"><rect class="cls-31" x="1728.02" y="1760.34" width="26.76" height="245.82"/></g><g class="cls-32"><polygon class="cls-33" points="1865.11 2060.69 1865.11 1845.15 1806.31 1845.15 1806.31 1793.5 1754.78 1793.5 1754.78 1760.35 1908.38 1760.35 1908.38 2040.6 1920.27 2040.6 1920.27 2060.69 1865.11 2060.69"/></g><g class="cls-34"><polygon class="cls-35" points="2042.17 2158.25 2042.17 1818.69 1990.64 1818.69 1990.64 1900.95 1961.9 1900.95 1961.9 1828.26 1908.38 1828.26 1908.38 1760.35 2077.46 1760.35 2077.46 2141.03 2060 2141.03 2042.17 2158.25"/></g><g class="cls-36"><polygon class="cls-37" points="2182.89 1921.04 2182.89 1830.17 2149.94 1798.37 2124.42 1798.37 2124.42 1781.87 2077.46 1781.87 2077.46 1760.35 2219.55 1760.35 2219.55 1921.04 2182.89 1921.04"/></g><g class="cls-38"><rect class="cls-39" x="2292.39" y="1760.34" width="25.27" height="265.91"/></g><g class="cls-40"><polygon class="cls-41" points="2544.6 1911.47 2498.02 1911.47 2498.02 1798.6 2464.33 1798.6 2464.33 1776.29 2317.66 1776.29 2317.66 1760.35 2544.6 1760.35 2544.6 1911.47"/></g><g class="cls-42"><polygon class="cls-43" points="2367.21 1901.91 2347.89 1901.91 2347.89 1795.26 2320.88 1769.19 2367.21 1769.19 2367.21 1901.91"/></g><g class="cls-44"><rect class="cls-45" x="1657.66" y="1760.34" width="27.75" height="147.3"/></g><rect class="cls-46" x="744.75" y="848.76" width="1990.41" height="911.14"/><polygon class="cls-46" points="2786.99 998.7 2086.39 998.7 2467.08 1012.59 2004.18 1026.48 2786.99 1041.45 2786.99 998.7"/><polygon class="cls-46" points="1156.11 1086.98 2122.14 1124.93 1040.73 1124.93 1156.11 1086.98"/><path class="cls-47" d="M2721.91,1759.18a292.36,292.36,0,0,1-35.49,5.74c-56.91,6.22-505.84,4-778.89,79.51q-10.15,2.79-20,5.77c-181.49,54.53-273.22,146.78-90.63,304.66,123.17,106.52,371.26,242.93,800.87,417.8h-1853V1709.73H2724S2793.7,1742.17,2721.91,1759.18Z"/><polygon class="cls-48" points="743.09 1747.67 743.09 1600.37 802.55 1600.37 802.55 1501.85 871.91 1501.85 871.91 1584.11 925.43 1584.11 925.43 1466.46 914.53 1466.46 914.53 1447.33 1037.41 1447.33 1037.41 1467.41 1025.52 1467.41 1025.52 1580.28 1054.26 1580.28 1054.26 1607.07 1106.78 1607.07 1106.78 1400.46 1159.3 1349.77 1177.14 1366.98 1194.59 1366.98 1194.59 1653.93 1254.44 1653.93 1254.44 1630.98 1300.02 1586.98 1336.69 1586.98 1336.69 1653.93 1374.35 1653.93 1374.35 1481.76 1434.8 1481.76 1434.8 1606.11 1484.35 1606.11 1484.35 1699.85 1549.75 1699.85 1549.75 1596.54 1661.73 1596.54 1661.73 1747.67 743.09 1747.67"/><rect class="cls-49" x="845.16" y="1501.85" width="26.76" height="245.82"/><polygon class="cls-50" points="982.25 1447.33 982.25 1662.86 923.45 1662.86 923.45 1714.52 871.91 1714.52 871.91 1747.67 1025.52 1747.67 1025.52 1467.41 1037.41 1467.41 1037.41 1447.33 982.25 1447.33"/><polygon class="cls-51" points="1159.3 1349.77 1159.3 1689.33 1107.77 1689.33 1107.77 1607.07 1079.03 1607.07 1079.03 1679.76 1025.52 1679.76 1025.52 1747.67 1194.59 1747.67 1194.59 1366.98 1177.14 1366.98 1159.3 1349.77"/><polygon class="cls-52" points="1300.02 1586.98 1300.02 1677.85 1267.07 1709.65 1241.56 1709.65 1241.56 1726.15 1194.59 1726.15 1194.59 1747.67 1336.69 1747.67 1336.69 1586.98 1300.02 1586.98"/><rect class="cls-53" x="1409.53" y="1481.76" width="25.27" height="265.91"/><polygon class="cls-54" points="1661.73 1596.54 1599.37 1596.54 1599.37 1709.41 1581.46 1709.41 1581.46 1731.73 1434.8 1731.73 1434.8 1747.67 1661.73 1747.67 1661.73 1596.54"/><polygon class="cls-55" points="1484.35 1606.11 1465.02 1606.11 1465.02 1712.76 1438.02 1738.83 1484.35 1738.83 1484.35 1606.11"/><rect class="cls-56" x="774.8" y="1600.37" width="27.75" height="147.3"/><polygon class="cls-57" points="1625.95 1747.67 1625.95 1600.37 1685.41 1600.37 1685.41 1501.85 1754.78 1501.85 1754.78 1584.11 1808.29 1584.11 1808.29 1466.46 1797.39 1466.46 1797.39 1447.33 1920.27 1447.33 1920.27 1467.41 1908.38 1467.41 1908.38 1580.28 1937.12 1580.28 1937.12 1607.07 1989.64 1607.07 1989.64 1400.46 2042.17 1349.77 2060 1366.98 2077.46 1366.98 2077.46 1653.93 2137.3 1653.93 2137.3 1630.98 2182.89 1586.98 2219.55 1586.98 2219.55 1653.93 2257.21 1653.93 2257.21 1481.76 2317.66 1481.76 2317.66 1606.11 2367.21 1606.11 2367.21 1699.85 2432.62 1699.85 2432.62 1596.54 2544.6 1596.54 2544.6 1747.67 1625.95 1747.67"/><rect class="cls-58" x="1728.02" y="1501.85" width="26.76" height="245.82"/><polygon class="cls-59" points="1865.11 1447.33 1865.11 1662.86 1806.31 1662.86 1806.31 1714.52 1754.78 1714.52 1754.78 1747.67 1908.38 1747.67 1908.38 1467.41 1920.27 1467.41 1920.27 1447.33 1865.11 1447.33"/><polygon class="cls-60" points="2042.17 1349.77 2042.17 1689.33 1990.64 1689.33 1990.64 1607.07 1961.9 1607.07 1961.9 1679.76 1908.38 1679.76 1908.38 1747.67 2077.46 1747.67 2077.46 1366.98 2060 1366.98 2042.17 1349.77"/><polygon class="cls-61" points="2182.89 1586.98 2182.89 1677.85 2149.94 1709.65 2124.42 1709.65 2124.42 1726.15 2077.46 1726.15 2077.46 1747.67 2219.55 1747.67 2219.55 1586.98 2182.89 1586.98"/><rect class="cls-62" x="2292.39" y="1481.76" width="25.27" height="265.91"/><polygon class="cls-63" points="2544.6 1596.54 2498.02 1596.54 2498.02 1709.41 2464.33 1709.41 2464.33 1731.73 2317.66 1731.73 2317.66 1747.67 2544.6 1747.67 2544.6 1596.54"/><polygon class="cls-64" points="2367.21 1606.11 2347.89 1606.11 2347.89 1712.76 2320.88 1738.83 2367.21 1738.83 2367.21 1606.11"/><rect class="cls-65" x="1657.66" y="1600.37" width="27.75" height="147.3"/><path class="cls-46" d="M835.33,1739.05s78.63-34.5,94.72-24.15,89.36-12.5,141.19-1.94,82.21,35.09,132.26,11.61,109-14.47,118,0,21.45,8,78.64,0,53.62-4.5,128.68,14.48,124.42,19,124.42,19H835.33Z"/><path class="cls-46" d="M726.33,1779.87s17.87-63.25,110.81-32.2,113.19,69,247.83,64.41,194.21,57.5,249,56.35,57.74,24.15,57.74,24.15H702.5Z"/><g class="cls-66"><path class="cls-67" d="M2418.87,2572.66H1984.05c-154.93-101.72-361.55-258.09-451.38-417.8-13.46-23.93-24.28-47.88-32-71.78-62.17-194,117.73-269.42,386.84-300.94q9.9-1.16,20-2.26c135.89-14.62,292.93-18.84,452.3-21.87,0,0-243.91,6.71-452.3,51-6.68,1.45-13.37,2.91-20,4.42-158.93,36.15-291.32,95.33-268.52,191.78,11.45,48.42,47.06,98.86,99.09,149.6C1874.11,2307.12,2177.56,2462.06,2418.87,2572.66Z"/></g><path class="cls-46" d="M1478.73,1744.22s55.41,16.39,92.94-12.5,130.47-26.31,171.57,0,91.15,11.51,116.17-1.79,73.28-9.48,134,4.13,60.76-5.92,121.53-4.13S2359.84,1758,2359.84,1758H1453.71Z"/><path class="cls-46" d="M2134,1758s69.05-53,104.9-38.34,68.43,33,92.87,17.89,63.55-16.39,74.95-3,52.22,5.38,73.56,3c57.41-6.29,80.42,20.45,80.42,20.45Z"/><polygon class="cls-27" points="2735.16 2016.13 2091.16 2016.13 2671.42 2026.25 2320.88 2041.43 2735.16 2052.93 2735.16 2016.13"/><polygon class="cls-27" points="2159.08 2216.23 2344.05 2204.73 2657.12 2216.23 2159.08 2216.23"/><polygon class="cls-68" points="2078.87 1832.17 2317.66 1832.17 2009.49 1839.65 2078.87 1832.17"/><path class="cls-69" d="M2102.82,2572.66H744.76V2227s33.69-59.24,89-72.09a93.43,93.43,0,0,1,42.47,0,118.22,118.22,0,0,1,31.8,12.62c98,55.33,182.09-12.51,248.59,68s136.54-25.64,254.32,40.37S1472.68,2408,1557,2420.21s124.53-61.33,213,0,178.42,2.82,257.34,61.35A242.75,242.75,0,0,1,2102.82,2572.66Z"/><path class="cls-25" d="M0,773.5v1840H2830V773.5Zm1887.59,1514h-480.1V936.05h480.1Zm834.3-.48H1907.51V936.05h814.38Z"/><rect class="cls-70" x="2701.12" y="773.52" width="15.26" height="1513.47"/><rect class="cls-70" x="1430.57" y="773.52" width="15.25" height="1513.47"/><rect class="cls-71" x="1349.02" y="827.21" width="1437.98" height="28.85"/><rect class="cls-72" x="1349.02" y="873.5" width="1437.98" height="28.85"/><rect class="cls-73" x="1349.02" y="919.79" width="1437.98" height="28.85"/><rect class="cls-74" x="1349.02" y="966.08" width="1437.98" height="28.85"/><rect class="cls-75" x="1349.02" y="1012.36" width="1437.98" height="28.85"/><rect class="cls-76" x="1349.02" y="1058.65" width="1437.98" height="28.85"/><rect class="cls-77" x="1349.02" y="1104.94" width="1437.98" height="28.85"/><rect class="cls-78" x="1349.02" y="1151.23" width="1437.98" height="28.85"/><rect class="cls-79" x="403.71" y="978.9" width="399.83" height="567.58"/><rect class="cls-80" x="856.73" y="978.9" width="291.83" height="329.67"/><rect class="cls-81" x="856.73" y="1382.63" width="219.12" height="219.12"/><rect class="cls-82" x="548.73" y="2146.46" width="1122.66" height="272.35"/><rect class="cls-83" x="548.73" y="2222.74" width="1122.66" height="11.05"/><rect class="cls-84" x="1425.47" y="2146.46" width="9.71" height="272.35"/><rect class="cls-85" x="1042.33" y="2146.46" width="9.71" height="272.35"/><rect class="cls-86" x="746.45" y="2123.63" width="9.71" height="272.35"/><path class="cls-87" d="M1364.19,2113.13h130.06a0,0,0,0,1,0,0v33.33a0,0,0,0,1,0,0H1364.19a5.19,5.19,0,0,1-5.19-5.19v-22.94A5.19,5.19,0,0,1,1364.19,2113.13Z"/><path class="cls-88" d="M1515.9,2116.56V2143h2.21v3.43h-91.37a9.2,9.2,0,0,1-9.2-9.2v-14.93a9.2,9.2,0,0,1,9.2-9.2h91.37v3.43Z"/><path class="cls-89" d="M1429.48,2116.56h86.42a0,0,0,0,1,0,0V2143a0,0,0,0,1,0,0h-86.42a5.19,5.19,0,0,1-5.19-5.19v-16.08A5.19,5.19,0,0,1,1429.48,2116.56Z"/><path class="cls-90" d="M1357.11,2074.37h143a0,0,0,0,1,0,0v38.76a0,0,0,0,1,0,0h-143a6.53,6.53,0,0,1-6.53-6.53v-25.71A6.53,6.53,0,0,1,1357.11,2074.37Z"/><path class="cls-88" d="M1524.62,2078.36v30.78h1.9v4h-75.06a11.56,11.56,0,0,1-11.55-11.56v-15.65a11.55,11.55,0,0,1,11.55-11.55h75.06v4Z"/><path class="cls-89" d="M1452.24,2078.36h72.37a0,0,0,0,1,0,0v30.78a0,0,0,0,1,0,0h-72.37a6.53,6.53,0,0,1-6.53-6.53v-17.73A6.53,6.53,0,0,1,1452.24,2078.36Z"/><path class="cls-91" d="M1407.78,2026.84h110.33a0,0,0,0,1,0,0v47.52a0,0,0,0,1,0,0H1407.78a7.06,7.06,0,0,1-7.06-7.06V2033.9A7.06,7.06,0,0,1,1407.78,2026.84Z" transform="translate(2918.82 4101.2) rotate(180)"/><path class="cls-88" d="M1381.92,2031.73v37.74H1380v4.89h74.78a12.51,12.51,0,0,0,12.5-12.51v-22.5a12.51,12.51,0,0,0-12.5-12.51H1380v4.89Z"/><path class="cls-89" d="M1388.95,2031.73h71.54a0,0,0,0,1,0,0v37.74a0,0,0,0,1,0,0h-71.54a7,7,0,0,1-7-7v-23.7A7,7,0,0,1,1388.95,2031.73Z" transform="translate(2842.41 4101.2) rotate(180)"/><path class="cls-92" d="M1362.32,1979.31h116.94a0,0,0,0,1,0,0v47.52a0,0,0,0,1,0,0H1362.32a7.42,7.42,0,0,1-7.42-7.42v-32.67A7.42,7.42,0,0,1,1362.32,1979.31Z"/><path class="cls-88" d="M1499.16,1984.21v37.73h2v4.89h-79.33a13.15,13.15,0,0,1-13.15-13.15v-21.22a13.15,13.15,0,0,1,13.15-13.15h79.33v4.9Z"/><path class="cls-89" d="M1423,1984.2h76.14a0,0,0,0,1,0,0v37.74a0,0,0,0,1,0,0H1423a7.39,7.39,0,0,1-7.39-7.39v-23A7.39,7.39,0,0,1,1423,1984.2Z"/><path class="cls-93" d="M1390.87,1943.34h119.76a0,0,0,0,1,0,0v36a0,0,0,0,1,0,0H1390.87a4.61,4.61,0,0,1-4.61-4.61v-26.74A4.61,4.61,0,0,1,1390.87,1943.34Z"/><path class="cls-88" d="M1530.53,1947v28.56h2v3.7h-84.31a8.16,8.16,0,0,1-8.16-8.16V1951.5a8.16,8.16,0,0,1,8.16-8.16h84.31v3.7Z"/><path class="cls-89" d="M1450.9,1947h79.63a0,0,0,0,1,0,0v28.56a0,0,0,0,1,0,0H1450.9a4.61,4.61,0,0,1-4.61-4.61v-19.34A4.61,4.61,0,0,1,1450.9,1947Z"/><path class="cls-94" d="M907.19,1351.71c0-116,134-130,134-130s133.95,14,133.95,130Z"/><rect class="cls-94" x="1038.53" y="773.52" width="5.23" height="498.22"/><path class="cls-94" d="M214.87,1259.51c0-97.47,112.59-109.23,112.59-109.23S440.05,1162,440.05,1259.51Z"/><rect class="cls-94" x="325.26" y="773.52" width="4.39" height="418.77"/><rect class="cls-25" x="0.01" y="2418.71" width="2830" height="194.78"/><rect class="cls-95" x="1591.52" y="2180.01" width="510.95" height="194.93" transform="translate(3693.99 4554.95) rotate(180)"/><rect class="cls-96" x="1613.16" y="2153.63" width="467.68" height="123.84" transform="translate(3694 4431.11) rotate(180)"/><rect class="cls-97" x="1553.28" y="2413.18" width="106.36" height="29.88" transform="translate(4034.58 821.66) rotate(90)"/><rect class="cls-98" x="2034.35" y="2413.18" width="106.36" height="29.88" transform="translate(4515.65 340.59) rotate(90)"/><path class="cls-46" d="M0,1926.07s68.51,346.34,496.41,323.55,515.45,363.88,515.45,363.88H0Z"/><rect class="cls-99" x="1244.17" y="2379.57" width="53.3" height="24.21" transform="translate(3662.5 1120.86) rotate(90)"/><rect class="cls-100" x="553.08" y="2234.09" width="729.85" height="179.27"/><path class="cls-101" d="M1282.93,2160.83H170.79l0-315.78h1034.8a77.32,77.32,0,0,1,77.32,77.32Z"/><rect class="cls-102" x="183.55" y="2149" width="1099.38" height="100.61"/><rect class="cls-103" x="514.54" y="2379.57" width="53.3" height="24.21" transform="translate(2932.87 1850.49) rotate(90)"/><rect class="cls-104" x="153.31" y="2379.57" width="53.3" height="24.21" transform="translate(2571.64 2211.72) rotate(90)"/><rect class="cls-105" x="167.85" y="2234.09" width="385.45" height="179.27"/><path class="cls-106" d="M242.23,2149l-71.42-304-18.76,3.2a77.32,77.32,0,0,0-62.55,92.69l67.27,308.68h406V2148.84Z"/><path class="cls-107" d="M622.83,2376.82s-20.67,34.23-29.4,39.83c-11.85,7.59-4.42,15.26,1.2,15.27s34.36,2,40.69-5,9.47-28,15.36-33.55,12-27.38-2.87-32.69C634.7,2356,622.83,2376.82,622.83,2376.82Z"/><path class="cls-108" d="M631.78,2361.76s-23.67,40.1-27.75,46,7.68,5.91,15,3.1,25.62-31.57,28.25-36.8c3.15-6.25.56-13.41.56-13.41Z"/><polygon class="cls-107" points="655.76 2383.34 650.3 2424.43 647.4 2424.56 648.3 2394.99 655.76 2383.34"/><path class="cls-107" d="M827.81,2376.82s-20.67,34.23-29.4,39.83c-11.85,7.59-4.42,15.26,1.2,15.27s34.36,2,40.69-5,9.47-28,15.36-33.55,12.17-27.94-2.87-32.69C839.61,2356.5,827.81,2376.82,827.81,2376.82Z"/><path class="cls-109" d="M835.52,2361.85s-22.44,40-26.52,45.93,7.69,5.91,15,3.1,25.62-31.57,28.25-36.8c3.14-6.25.56-13.41.56-13.41Z"/><polygon class="cls-107" points="860.74 2383.34 855.28 2424.43 852.38 2424.56 853.28 2394.99 860.74 2383.34"/><path class="cls-108" d="M919.52,2065.27l-187.06,83.27s-20.87,6.63-23.21,29.28c-7.31,70.7-61.43,182.85-61.43,182.85-17.37,8.29-16,1.09-16,1.09,10.94-34.32,24.27-175.78,29-232.65,1-12.05,1.63-20.3,1.77-22.94.09-1.79,2.1-4.14,5.56-6.88,25.67-20.34,131.28-62.44,131.28-62.44C878.71,2034.89,919.52,2065.27,919.52,2065.27Z"/><path class="cls-109" d="M954.77,2101c-5.79,49.4-78,43.74-78,43.74H789.34s23,49.95,31.85,92.08c9.41,44.71,31.6,123.82,31.6,123.82s-1.45,2.69-17.27,1.18c0,0-68.67-133.7-94.95-167.31-5.65-7.23-21.86-46.49-24.65-69.91-.94-7.88-.36-14,2.65-16.44s10-7.16,19.31-12.89c27.4-16.88,75-42.87,101.49-48.69,35.51-7.79,91.67-22.41,91.67-22.41S960.56,2051.63,954.77,2101Z"/><path class="cls-110" d="M897.79,1713s13.6-25.83,7-53.34-32.15-54.92-69.53-42.33-67.58,41.62-45.18,75.19-20.28,48.73-9.4,64.71,6.75,32.65,2.15,36.37-19.46,17-17.82,32.65,72.51-45.71,72.51-45.71S876.09,1702.94,897.79,1713Z"/><path class="cls-111" d="M785.63,2031.09s5.42,26.31,145.12-6.91C930.75,2024.18,883.92,2008.62,785.63,2031.09Z"/><path class="cls-112" d="M932.34,2031.56l6.49,12.41-153.2,4.46c8.07-27,5.45-63.68,4-91.49-1.73-34-20.48-57.57-18.48-91.91-10.11,1.63-11.85,1.94-22,3.49,15.47-44.09,20.77-65.93,68.84-82.9,15.65-5.53,25.94-6.62,42.87-5.23,55.67,4.59,72.46,5.25,99.81,55.7-42.81,6.81-35.76,22.18-48.74,64.76-6.33,20.77-12.94,43.94-9.55,65.84C905.79,1988.25,932.34,2011.9,932.34,2031.56Z"/><path class="cls-113" d="M843.49,1796.31c22.79-4.31,17.94-17,17.94-17s-1.06-7.15-1.47-16.19c-.1-2.32-.17-4.76-.15-7.23a98.32,98.32,0,0,1,.62-11.21c1.87-15.29-41.35-6.17-41.35-6.17s2.49,31-3.47,40.22S820.71,1800.61,843.49,1796.31Z"/><path class="cls-113" d="M887,1779.25s-46,53.06-63,65.36c0,0-19.51-17.64-7.49-64.21C816.52,1780.4,838.71,1769.28,887,1779.25Z"/><path class="cls-113" d="M887.88,1648.67s24.8,47.79.2,93.06S815.15,1722,812,1714.39s-19.7-50.75,13.27-63.85S880.85,1635.7,887.88,1648.67Z"/><path class="cls-110" d="M879.63,1665.63s17.07,22.43,19.09,39c0,0,6.81-31.32-12.41-61.42s-68.09-1.43-74.64,10.59-25.72,22.62,6.5,74.31C818.17,1728.1,876.13,1687.83,879.63,1665.63Z"/><path class="cls-114" d="M839.63,1745.66s4.15,9.06,20.33,17.48c-.1-2.32,0-3.73,0-6.2A46.37,46.37,0,0,1,839.63,1745.66Z"/><path class="cls-113" d="M1080.84,1990.19s11.35,5,16.73,2.75,13.7-2.73,16.32-2.73c3.51,0,14.5-3.93,14.31.36s-17.84,7.29-21.45,8.63,10.81,9.27,12.14,12.79-14.92,26.66-24.1,20.07-14.15-19.75-16-20.59a66,66,0,0,1-6.89-4.52Z"/><path class="cls-113" d="M1117.16,2010s26.6,22.06,27,25-1,4.37-3.56,2.41-26.39-20.56-26.39-20.56,26.66,31.49,27.56,33.82c.52,1.37-2,4.21-3.52,3.3s-29.85-30.57-29.85-30.57,24.84,29.45,25,31.65c.11,1.93-2.88,4-4.88,2s-26.72-28-26.72-28,16.61,22.61,15.59,24.6c-.63,1.22-2.72,3.77-6.82-2.2s-15.33-19-15.33-19Z"/><path class="cls-112" d="M798.46,2147.61h78.35s72.17,5.79,78-44.77S931,2024.2,931,2024.2s-38.13,10.16-71.42,18.2a257.5,257.5,0,0,0-60.21-5.25s-141.1,46.63-136.85,71.18C662.56,2108.33,721.58,2076.77,798.46,2147.61Z"/><path class="cls-112" d="M803.06,2041s33.6,13,74.79,1.24l1.93-15.37L795,2031.56Z"/><path class="cls-115" d="M803.58,2048.09a7.38,7.38,0,0,1-10.27,7.33l-8.67-3.71a6.13,6.13,0,0,1-3.67-6.65c.07-.51.17-1,.24-1.61,3.7-24.84,10.86-109.26-.22-124a54.69,54.69,0,0,1-8.26-14.73c-7.48,19.28-16.79,44.09-20.48,57.46l-43.83,110.73a269.37,269.37,0,0,0-27.84,14.93c21.93-106.69,30.68-134.63,30.68-134.63,4.62-12.39,17.87-49.94,29.6-83.37,7.41-21.1,14.2-40.58,17.87-51A23.87,23.87,0,0,1,769,1806.11c10.93-6.53,29.14-16.82,45.66-24.84l.2-.09c.53-.27,1.05-.52,1.59-.76l0,0h0c-30.12,45.57-20.1,170.81-13.79,256.68.29,3.69.56,7.31.8,10.83A.47.47,0,0,1,803.58,2048.09Z"/><path class="cls-115" d="M920.16,1784.45c10.06,1.55,35,25.77,48.25,50.21,15.11,27.9,30.5,59.66,42,70.1,21.21,19.22,80.57,87.14,83.39,85.49,1.08-.63-16.28,20.28-18.49,21.26-1.1.49-97.57-83.11-106.84-95.84-8.78-12.08-32.27-62.75-39.3-61.64l0,0v0A376.69,376.69,0,0,0,912,1900.85c-.13.45-.27.9-.4,1.35-5.58,18.89-5.07,39.4-2.05,62.44,2.28,17.4,15.27,45.84,23.1,59.68.94,1.66.7,4.83-.31,7.24h0a5.19,5.19,0,0,1-2.57,3l-28.33,10.5-6.65,2.46a14.51,14.51,0,0,1-19.42-11.72c-6.3-48.44-14.27-97.94-20.62-116.58-27.87-81.81,10.89-143.28,10.89-143.28S911.33,1781.15,920.16,1784.45Z"/><path class="cls-110" d="M836.46,1696.26s-9.53,14.83-.72,27.64-2.22,25.38-4.13,38.92,36.76,49.55-6.25,67.67-56.71-11.83-45.74-28.32,18.77-29.85,19.69-53.35S808,1688.68,836.46,1696.26Z"/><polygon class="cls-116" points="1124.19 1562.91 952.19 1562.91 952.19 1687.58 952.19 1713.84 978.45 1687.58 1124.19 1687.58 1124.19 1562.91"/><rect class="cls-117" x="1185.03" y="2226.82" width="13.63" height="241.73"/><rect class="cls-118" x="770.52" y="2192.97" width="473.47" height="33.85" transform="translate(2014.5 4419.79) rotate(180)"/><rect class="cls-117" x="808.54" y="2226.82" width="13.63" height="241.73" transform="translate(1630.71 4695.36) rotate(180)"/><path class="cls-119" d="M1069.51,2124.41c-5.5-3.66-13.09-2.78-18.36-1.47l1.92-13.8H979.66l11.76,84.33h49.91l1.1-7.88,1.06-7.57a29.57,29.57,0,0,0,19.79-7.81c7.94-7.26,12.49-19,12.49-32.13C1075.77,2130.22,1072.36,2126.31,1069.51,2124.41Zm-11.64,39.9a21.29,21.29,0,0,1-13.26,5.65l5.33-38.31c3.92-1.34,11.35-3.08,15.14-.57.66.44,2.68,1.78,2.68,7C1067.76,2149,1064.16,2158.55,1057.87,2164.31Z"/><g class="cls-120"><path class="cls-121" d="M1041.33,2193.47H991.42l-11.76-84.33h27s-9.71,76.11,34.64,84.33Z"/></g><path class="cls-46" d="M1013.44,2051.08s-15.44,5.14-9.72,18.86,15.56,22.37,6.29,39.2c0,0,17.15-10.32,9.15-27.48S1006.29,2059.65,1013.44,2051.08Z"/><path class="cls-46" d="M1035.58,2066.55s-11.33,3.77-7.13,13.84,11.41,16.4,4.61,28.75c0,0,12.58-7.57,6.71-20.15S1030.33,2072.84,1035.58,2066.55Z"/><path class="cls-46" d="M994.41,2066.55s-11.32,3.77-7.13,13.84,11.41,16.4,4.61,28.75c0,0,12.59-7.57,6.71-20.15S989.17,2072.84,994.41,2066.55Z"/><path class="cls-122" d="M741.07,2367s26.11,11.78,37.78,15.87,54.38-.51,59.13,3.16,4.94,17.52-1.93,19.95-57.89,15-75.68,13.21-49.11,10.21-56.58,8.66-8.13-43.53-6.55-53.2S741.07,2367,741.07,2367Z"/><path class="cls-113" d="M735.06,2350.17l6,16.82s-31.48,11.21-43.83,7.65l-4.12-17.15Z"/><path class="cls-123" d="M670.67,2382s24.63,15,35.76,20.56,54.06,6.4,58.37,10.65,3,18-4.12,19.56-59.14,7.55-76.61,3.51-49.89,3.9-57.14,1.4-3.26-44.25-.63-53.65S670.67,2382,670.67,2382Z"/><path class="cls-113" d="M667,2364.47l3.69,17.48s-32.5,7.14-44.37,2l-2.2-17.55Z"/><path class="cls-124" d="M420.11,2049.77s112.31,1,126.08,2.94c14.92,2.11,73.36,4,80.41,14.7,71.23,108.09,117.71,285.08,117.71,285.08L688,2363.57s-54.43-105.5-77.23-160.3c-20.47-49.2-38-61.85-81-60.77s-180.48-8.38-259.76-18.21Z"/><path class="cls-111" d="M408.23,1789.42s33.32,71.73,30.62,98.37-31.36,100.48-33.38,115.32S418,2047.28,418,2047.28l-150.06,69.47a415,415,0,0,1,0-94.5c6.05-50.57,10.5-104.94,17.17-133.52,22.76-97.54,83-138,83-138Z"/><path class="cls-125" d="M418,2047.28s112.31,1,126.08,2.94c14.92,2.11,74.68,3.13,80.41,14.71,40.81,82.41,50,302.39,50,302.39l-52.51,6.35S596.12,2262,588,2208.85s-18.21-60.91-61.2-59.82-211.37,44.13-258.94-32.28Z"/><path class="cls-113" d="M321,1857.17c.33-13.89,8.39-73.83,42.2-69.73s29.9,44.66,26.77,75.26c-3.27,32-19.88,110.49-14.6,114.53s47.63,25.14,55.72,28.57c11.92,5.06,54.73,28.65,59,29.84s-9.33,19.56-9.33,19.56-134.7-24.34-158.79-35.76S321,1857.17,321,1857.17Z"/><path class="cls-113" d="M486.2,2034.24s10.7,2.7,15.86,3.11,29.58-9.28,37.18-7.88,56.46,25,58.65,26.64-1.3,4.9-1.3,4.9l-115.87-5.81Z"/><path class="cls-113" d="M495.62,1676.47s3.59,29.45-4.39,30.69c-6.59,1-4.27,29.45-4.27,33.94s-12.36,2.93-15.74,4.5-22.54,29.67-32.17,27-45.72-33.58-52.46-49.85,4.83-73.35,21.24-92.9S489.1,1624.94,495.62,1676.47Z"/><path class="cls-113" d="M420.48,1751.72s-1,2.58-2.41,6.59c-1.05,3-2.36,6.67-3.71,10.71-3.67,11-7.68,24.26-8,30.76-.57,12.13-38.33-49-38.33-49a585.83,585.83,0,0,0,22.06-79.9C398.56,1627.8,420.48,1751.72,420.48,1751.72Z"/><path class="cls-126" d="M496.17,1682.77s23.67-21,7-50-74.92-12.37-80.48-13-34.61-9.89-40.24,46.08-2.08,47.58-2.08,47.58,14.26-24,24.45-20.15,28,5.73,28,5.73.34-26.13,15-24.11S484.58,1672.43,496.17,1682.77Z"/><path class="cls-127" d="M318.39,1859.77l77.2,2.79s12-80.32-32.39-78.77S318.39,1859.77,318.39,1859.77Z"/><path class="cls-113" d="M423.61,1680.32c0-3.59,1.47-18.51-13.14-15.14s-5.81,36-3.93,37.12S423.27,1710.5,423.61,1680.32Z"/><path class="cls-113" d="M368,1750.77s66.25,119.7,64.52,102.73c-1.35-13.26-30-77.33-30-77.33Z"/><path class="cls-114" d="M418.07,1758.31c-1.05,3-2.36,6.67-3.71,10.71-13.36-16.61-22.62-35.42-25.36-41.27C394.46,1737.68,418.07,1758.31,418.07,1758.31Z"/><path class="cls-128" d="M2217.89,2387.73c-12-54.77,13.91-68.44,39-81.65,20.46-10.8,39.79-21,38.76-53.28-1.36-42.79,27.78-58.36,53.5-72.09,19.13-10.22,37.2-19.87,39.9-39.34,6.49-46.85,49.7-105.08,50.13-105.66l2.68,2c-.43.57-43.12,58.12-49.49,104.11-2.93,21.16-21.73,31.2-41.64,41.83-26.07,13.93-53,28.32-51.73,69,1.1,34.37-20.08,45.55-40.55,56.35-25,13.22-48.68,25.69-37.25,78Z"/><path class="cls-129" d="M2231.05,2373.77c-.58,0-1.15,0-1.73-.06-10.83-.81-21.45-9-33.41-25.9l-.75-1,.83-1c.2-.23,19.37-23.6,12.33-67.47a205.08,205.08,0,0,0-5.6-24.37c-2.58-9.18-4.28-15.25-1.43-20.09,3.62-6.14,13.39-9.37,40.93-15.92,29.32-7,39.12-40,47.77-69.17,8.15-27.45,15.86-53.34,38.68-52.54,21,.8,52.8-32,80.89-61,26.07-26.87,50.67-52.19,66.4-51.69a12.53,12.53,0,0,1,9.47,4.7c14,16.7.94,42-11.71,66.54-10.79,20.9-21,40.64-14.43,53.66,8.25,16.36,9.4,31.17,3.34,42.81-7.17,13.78-23.9,22.66-49.7,26.4-23.6,3.42-26.16,29.16-28.86,56.41-3.15,31.8-6.72,67.84-46.32,71.27-29.41,2.54-49.23,23.19-66.72,41.4C2257.13,2361.18,2245,2373.77,2231.05,2373.77Zm-31.69-26.88c10.9,15.09,20.79,22.78,30.2,23.48,13.17,1,25.16-11.52,39.06-26,17.89-18.64,38.18-39.77,68.84-42.42,36.83-3.19,40.11-36.27,43.28-68.26,2.83-28.59,5.51-55.6,31.71-59.39,24.68-3.58,40.56-11.87,47.21-24.64,5.54-10.65,4.38-24.39-3.36-39.75-7.33-14.55,3.24-35,14.44-56.71,12.15-23.53,24.71-47.85,12.12-62.84a9.18,9.18,0,0,0-7-3.51c-14.22-.48-38.34,24.35-63.87,50.67-29.6,30.51-60.18,62-82.57,62l-.86,0c-20.23-.75-27.23,22.84-35.34,50.15-8.9,30-19,64-50.21,71.47-24.9,5.93-35.79,9.23-38.81,14.36-2.12,3.61-.66,8.83,1.77,17.48a209.27,209.27,0,0,1,5.68,24.74C2218.17,2318.53,2203.15,2341.79,2199.36,2346.89Z"/><path class="cls-130" d="M2232.27,2362.3a11.81,11.81,0,0,1-1.18-.06c-17.76-1.61-31.42-40.53-44.63-78.16-6.27-17.85-12.18-34.71-17.95-45.53-4.47-8.4-10.15-17.15-15.64-25.62-14.64-22.54-29.77-45.86-24.84-66.31,2.59-10.77,10.31-19.72,23.61-27.39,29.11-16.77,24.63-26.25,14.82-47-7.2-15.24-17.06-36.1-17.44-68.93-.17-14.11-.49-26.31-.78-37.08-.93-34.6-1.4-52,6-58.25,3.06-2.6,7.34-3.27,13.47-2.1,10.48,2,15,10.45,19.81,19.41,6.12,11.42,13,24.37,34,28.76,19.64,4.11,38.54,9.71,43.76,22.76,3.66,9.19.19,21.26-10.62,36.91-2.62,3.8-3.52,7-2.74,9.87,1.71,6.31,11.5,10.87,22.83,16.16,16.13,7.53,36.21,16.9,41.89,36.29,4.58,15.63-.72,35.13-16.21,59.61-36.63,57.91-35.16,97.19-33.86,131.83,1,25.68,1.87,49.93-13.61,77C2246.1,2356.46,2239.33,2362.3,2232.27,2362.3Zm-69.82-453.64a9,9,0,0,0-6,1.86c-6.16,5.25-5.68,23.14-4.81,55.61.29,10.78.61,23,.78,37.13.37,32.1,10.05,52.58,17.12,67.53,9.73,20.6,15.61,33-16.18,51.35-12.46,7.18-19.66,15.44-22,25.26-4.58,19.06,10.15,41.76,24.4,63.71,5.53,8.52,11.25,17.34,15.79,25.86,5.88,11.05,11.84,28,18.15,46,12.26,34.93,26.16,74.51,41.78,75.94,6,.53,12.22-4.87,18.63-16.07,15-26.27,14.15-49,13.17-75.24-1.32-35.14-2.81-75,34.38-133.75,14.94-23.62,20.12-42.22,15.83-56.88-5.26-17.94-23.77-26.57-40.1-34.19-12.09-5.64-22.53-10.52-24.65-18.32-1-3.86,0-8,3.23-12.65,10.12-14.66,13.47-25.7,10.25-33.76-4.64-11.62-23.49-17-41.33-20.73-22.46-4.71-30.11-19-36.26-30.46-4.6-8.59-8.57-16-17.48-17.7A24.83,24.83,0,0,0,2162.45,1908.66Z"/><path class="cls-131" d="M2232.62,2383.06l-3.2-1c17.91-56.6-14.48-183.58-24.13-214.49-4.75-15.19-.36-38.07,3.88-60.19,5.48-28.58,11.14-58.12-3.3-69.2-27.14-20.8-25.71-68.92-25.63-71l3.35.12c0,.48-1.44,48.44,24.31,68.18,16.1,12.34,10.23,42.92,4.56,72.49-4.17,21.71-8.47,44.17-4,58.56C2220.42,2204.79,2250.48,2326.6,2232.62,2383.06Z"/><path class="cls-132" d="M2097.18,2015.44c-7.46-18.93-36.57-16.06-33.9,10.7s21.41,55.3-7.13,100.79,36.57,54.41,59.76,83,31.22,67.78,50.84,92.76,33,84.73,49.05,62.43.95-51.29,2.73-91.43,37.51-65.55,1.78-91.41-71.65-33.8-59.86-92.14C2165.66,2064.36,2120.37,2074.3,2097.18,2015.44Z"/><path class="cls-46" d="M2241.8,2370.24c-.19-1.19-20-118.76-64.44-151-45.29-32.86-53.51-63.21-69.33-134.78l3.27-.73c15.62,70.69,23.73,100.66,68,132.8,45.52,33,65,148.25,65.78,153.14Z"/><path class="cls-133" d="M2201.73,2366s13.2-32.63-10.82-79-43.45-39.25,14.44-74.93.36-148.08,49.64-162.36,92.1-196.19,129.57-173-12.49,112.37,14.27,139.14,30.33,60.81-25,88.39,39.25,132.84-35.69,164.95S2284.74,2427.2,2201.73,2366Z"/><path class="cls-46" d="M2224.62,2400.63c-.08-.41-8.14-42.19,17.32-96.19,25.93-55,38.35-115.12,33.2-160.84-2.78-24.76,13.08-34.44,28.42-43.8,15.1-9.22,30.71-18.76,29.85-43.15-.78-22,8.55-73.69,9-75.88l3.29.6c-.09.53-9.66,53.49-8.89,75.17.93,26.34-15.54,36.4-31.46,46.12-15.1,9.22-29.37,17.93-26.83,40.57,5.21,46.3-7.31,107.11-33.5,162.64-25,52.92-17.15,93.69-17.07,94.1Z"/><path class="cls-46" d="M2285.17,2170.07c16.83-15.63,39.09-17.88,34.45,5.3s-20.54,29.81-12.59,44.39,21.2,29.14-1.32,47-35.11,19.87-41.74,53.66-5.3,56.85-34.44,58.29-17.89-41.07-8.61-60.28c0,0,13.91-21.92,4.63-50.71s-27.16-44.33,10.6-54.11S2273.83,2180.61,2285.17,2170.07Z"/><path class="cls-134" d="M2231.63,2400.34c-.09-4.13-2.09-101.45,16.11-117.83,18.59-16.74,22.16-46.3,22.64-62.44.61-21,27.78-33.5,28.93-34l1.38,3.06c-.27.12-26.41,12.14-27,31.06-.6,20.36-5.21,48.14-23.75,64.83-17.07,15.36-15,114.27-15,115.26Z"/><polygon class="cls-135" points="2300 2360.62 2269.81 2475.17 2202.33 2475.17 2172.14 2360.62 2300 2360.62"/><g class="cls-136"><path class="cls-137" d="M2300,2360.62s-66.47,12.48-66.47,114.55h-31.2l-30.2-114.55Z"/></g><path class="cls-138" d="M1644.05,1496.29s-33.21,16.24-25,60.43,11.85,50.15,2.66,67.41-20,90.93-11.75,104.89,102.31-61.35,115.35-124.54-8.27-91.29-15.8-101.76S1673.37,1481.41,1644.05,1496.29Z"/><polygon class="cls-139" points="1477.54 1442.38 1583.79 1442.38 1583.79 1519.39 1583.79 1535.61 1567.57 1519.39 1477.54 1519.39 1477.54 1442.38"/><path class="cls-140" d="M1629.8,2436.55a83.07,83.07,0,0,1-9.69,16.21c-4.65,6.06-19.11,31-25.48,32.71s-26.05,5.21-27.78,16.21-2.61,18.81,16.78,19.68,32.14,2,41.4-11.58,24-23.45,24-23.45v35.5h7.53s3.47-36.94,5.5-39.55,7.24-31-10.71-45.73S1629.8,2436.55,1629.8,2436.55Z"/><path class="cls-113" d="M1594.63,2485.47s17.37,4.34,24,0,29.29-42.6,36.79-44.89c0,0-7.26-14.74-25.65-4C1629.8,2436.55,1599.56,2479.1,1594.63,2485.47Z"/><path class="cls-113" d="M1425.12,1830.66s-12,2.31-16.17-3.35c-3.5-4.82-11.5-8.51-14-9.66-3.3-1.52-11.66-10-13.62-5.85s13.11,14.61,15.83,17.43-14.78,4.08-17.81,6.83.7,31.63,12.61,29.38,23.17-12.52,25.34-12.5a74.45,74.45,0,0,0,8.74-1.29Z"/><path class="cls-113" d="M1382.05,1834.88s-36,9.3-37.9,11.93-1.27,4.55,2.14,3.82,35.07-8,35.07-8-40.79,18.18-42.8,20c-1.18,1.06-.2,4.85,1.65,4.63s43.32-15.93,43.32-15.93-38,17.05-39.28,19.07a2.86,2.86,0,0,0,3.6,3.95c2.91-1.07,39.12-14.89,39.12-14.89s-26.91,14.15-26.94,16.47c0,1.42.67,4.74,7.5.87s23.9-11.3,23.9-11.3Z"/><path class="cls-140" d="M1726.89,2459.56s-19.39,28.8-27.21,35.75c0,0-17.37,6.37-19.1,18.52s-1.45,20.27,19.1,20.85,34-3.11,37.79-15.56a56.69,56.69,0,0,1,12-20.92v26.05h4.63s1.16-25.18,1.45-29.81,3.32-22.44-6.44-30.32S1726.89,2459.56,1726.89,2459.56Z"/><path class="cls-141" d="M1739.92,1903.65s24.49,31.84,31.13,69.61-3.92,164.56-3.64,183.23,17.66,65.13,14.19,100.3S1764.42,2467,1764.42,2467l-37.53-7.44s2.17-178.45,0-193.22-6.53-68.57-7.4-74.65-55.12-165.69-55.12-192.93S1680.87,1859.22,1739.92,1903.65Z"/><path class="cls-141" d="M1616.89,1916.09s-40.23,153.56-45,174.84-11.69,38.82-11.69,47.86c0,20.95,7.79,54.61,7.79,54.61l51.09,244.36h48.66s-27.11-146.6-27.84-175.27-22.85-69.52-18.51-81.68,69.91-152.4,69.91-152.4S1740.93,1871.52,1616.89,1916.09Z"/><path class="cls-113" d="M1699.68,2495.31s19.86,11.1,32.65-3.16c10.8-12,16.78-28,16.78-28l-22.22-4.56Z"/><path class="cls-142" d="M1633.51,1655.14a50.17,50.17,0,0,0-29.12,15c-12.53,13.43-24.3,34.85-27.58,42s-49.3,73.54-51.69,75-25.52,9.22-40.84,14.38c-23.65,8-71.07,25.19-71.07,25.19l9.42,29.81s89.15-29.17,111.48-34.67c27.3-6.72,90.15-87.36,90.15-87.36S1671.12,1679.61,1633.51,1655.14Z"/><path class="cls-143" d="M1662.46,1643.5s-21.49,10.15-29,11.64-36.41,39.1-41.48,52.82,0,34.32,10.44,58.5.6,32.23,5.38,56.4,3.23,114.61,2.34,128,139.69,33.78,167.44,9.31c0,0-18.79-81.5-41-104.76-4.81-5-4.31-38.56-1-46.91s40.29-70.73,40.29-70.73,2.71-63.27-13.43-75.81c-14-10.89-52.26-14.77-59.12-17.16S1676.49,1641.41,1662.46,1643.5Z"/><path class="cls-113" d="M1652.2,1618.71s.64,5.91,1.38,13.91c.29,3.16.6,6.65.89,10.23.85,10.72,1.54,22.22,1.12,28.11,0,0,22.34,22.38,47.72-26.11,0,0-10.67-20-2.63-47.23S1652.2,1618.71,1652.2,1618.71Z"/><path class="cls-144" d="M1589.7,1775.37s-5.37-35.75.34-57.49c0,0,.24,19.28,10.49,45.83Z"/><path class="cls-113" d="M1720.47,1648.28s-15.36,45.37-57.53,42-20-38.3-20-38.3,10.51-6,13.47-6.6,46.62-1.12,46.62-1.12Z"/><path class="cls-142" d="M1643,1652s-22.08,61.09-22.08,123.36-1.78,163.7-9.49,195.73-29.66,131.1-29.66,131.1l-17.21-8.9s41.37-158.1,44.49-169.5-2.37-131.84-5.33-141.92-15.59-55-13.63-67.42c2.48-15.7,17.17-38.93,40.89-58.91Z"/><path class="cls-142" d="M1712.14,1646.37a634.91,634.91,0,0,0-20.68,100.26c-7,56.29,21.35,317.6,40.33,376.92l73.56-11.86S1789.51,1927,1768,1893.37s-28.33-63.36-5.13-133.51S1752.72,1655,1752.72,1655,1718.59,1647.1,1712.14,1646.37Z"/><polygon class="cls-145" points="1632.79 1832.78 1721.97 1987.25 1821.12 1930.01 1735.81 1773.3 1632.79 1832.78"/><polygon class="cls-146" points="1643.54 1838.09 1722.74 1975.29 1810.8 1924.45 1735.03 1785.27 1643.54 1838.09"/><polygon class="cls-145" points="1672.76 1825.77 1667.2 1816.14 1702.8 1795.59 1709.75 1804.41 1672.76 1825.77"/><path class="cls-113" d="M1677,1935.37s4,0,5.83-.84c0,0,3.11-1.81,5.41-3a17.61,17.61,0,0,1,1.8-.81c1.82-.63,6-1.47,10-4.21s17.9-18.9,17.9-18.9l-6.6-10-4.83-10.27s-29.32,1.9-33.29,4a10.72,10.72,0,0,0-1.1.67c-3.18,2.12-4.66,5-6.2,6.34-.57.49-5.85,5.66-5.67,7.86a7.24,7.24,0,0,0,3.51,6.09s.76,6,3.7,8.74c0,0,.52,5.53,5.17,8C1672.59,1929,1673.75,1934.57,1677,1935.37Z"/><path class="cls-142" d="M1737.44,1655.14s27.09-7.76,42.6,22.08,15.45,42.58,17.52,57.15c2,13.77,10.8,51.33,11.69,55.21s20.92,50.15,11.74,66.32-103,64.09-102.37,67.67-16.24-36.17-16.24-36.17,37.93-21.14,44.15-27.65c10.09-10.57,31.37-22,27-35.08-5.14-15.41-20.57-67.39-24.15-75S1714.61,1664.84,1737.44,1655.14Z"/><path class="cls-147" d="M1648.87,1501.19s-48.22,15.15-22,98.36,92-9.64,85.14-60.34S1648.87,1501.19,1648.87,1501.19Z"/><path class="cls-138" d="M1621.9,1549.74s23.95,23.51,64,26.45c0,0,15.41,18.07,16.59,25.16,0,0,35.78-61-8.2-97.53S1605.73,1534.68,1621.9,1549.74Z"/><path class="cls-147" d="M1685.47,1577.85c.31-6.06,4-19.84,13-16s-.55,31.92-6.52,30.19C1692,1592.06,1684.73,1592.17,1685.47,1577.85Z"/><path class="cls-114" d="M1653.58,1632.62c.29,3.16.6,6.65.89,10.23,0,0,21.28-1.27,35.5-32.92C1689.05,1611.31,1673.45,1634.21,1653.58,1632.62Z"/></g></g></svg>